HIERARCHY
ROOT Hips
{
	OFFSET 0.00 0.00 0.00
	CHANNELS 6 Xposition Yposition Zposition Xrotation Yrotation Zrotation
	JOINT Spine
	{
		OFFSET 0.00000 1.15266 1.72900
		CHANNELS 3 Xrotation Yrotation Zrotation
		JOINT Spine1
		{
			OFFSET 0.00000 0.40032 2.27031
			CHANNELS 3 Xrotation Yrotation Zrotation
			JOINT Spine2
			{
				OFFSET 0.00000 0.20092 2.29656
				CHANNELS 3 Xrotation Yrotation Zrotation
				JOINT Spine3
				{
					OFFSET 0.00000 0.00000 2.30533
					CHANNELS 3 Xrotation Yrotation Zrotation
					JOINT Neck
					{
						OFFSET 0.00000 -0.86450 6.05149
						CHANNELS 3 Xrotation Yrotation Zrotation
						JOINT Head
						{
							OFFSET 0.00000 -0.55043 3.12167
							CHANNELS 3 Xrotation Yrotation Zrotation
							End Site
							{
								OFFSET 0.00000 0.00000 3.73175
							}
						}
					}
					JOINT RightShoulder
					{
						OFFSET -0.78828 -1.31380 4.25672
						CHANNELS 3 Xrotation Yrotation Zrotation
						JOINT RightArm
						{
							OFFSET -3.91513 -0.00000 0.00000
							CHANNELS 3 Xrotation Yrotation Zrotation
							JOINT RightForeArm
							{
								OFFSET -6.91491 -0.00000 0.00000
								CHANNELS 3 Xrotation Yrotation Zrotation
								JOINT RightHand
								{
									OFFSET -6.09622 -0.00000 0.00000
									CHANNELS 3 Xrotation Yrotation Zrotation
									JOINT RightHandEnd
									{
										OFFSET -1.74995 -0.00000 0.00000
										CHANNELS 3 Xrotation Yrotation Zrotation
										End Site
										{
											OFFSET -1.74995 -0.00000 0.00000
										}
									}
									JOINT RightHandThumb1
									{
										OFFSET -0.69998 -1.16663 -0.46665
										CHANNELS 3 Xrotation Yrotation Zrotation
										End Site
										{
											OFFSET -1.69032 -0.45292 0.00000
										}
									}
								}
							}
						}
					}
					JOINT LeftShoulder
					{
						OFFSET 0.78828 -1.31380 4.25672
						CHANNELS 3 Xrotation Yrotation Zrotation
						JOINT LeftArm
						{
							OFFSET 3.91513 0.00000 0.00000
							CHANNELS 3 Xrotation Yrotation Zrotation
							JOINT LeftForeArm
							{
								OFFSET 6.91491 0.00000 0.00000
								CHANNELS 3 Xrotation Yrotation Zrotation
								JOINT LeftHand
								{
									OFFSET 6.09622 0.00000 0.00000
									CHANNELS 3 Xrotation Yrotation Zrotation
									JOINT LeftHandEnd
									{
										OFFSET 1.74995 0.00000 0.00000
										CHANNELS 3 Xrotation Yrotation Zrotation
										End Site
										{
											OFFSET 1.74995 0.00000 0.00000
										}
									}
									JOINT LeftHandThumb1
									{
										OFFSET 0.69998 -1.16663 -0.46665
										CHANNELS 3 Xrotation Yrotation Zrotation
										End Site
										{
											OFFSET 1.69032 -0.45292 0.00000
										}
									}
								}
							}
						}
					}
				}
			}
		}
	}
	JOINT RightUpLeg
	{
		OFFSET -2.33857 0.00000 -0.68318
		CHANNELS 3 Xrotation Yrotation Zrotation
		JOINT RightLeg
		{
			OFFSET 0.00000 0.00000 -10.74496
			CHANNELS 3 Xrotation Yrotation Zrotation
			JOINT RightFoot
			{
				OFFSET 0.00000 0.00000 -10.93085
				CHANNELS 3 Xrotation Yrotation Zrotation
				JOINT RightToeBase
				{
					OFFSET 0.00000 -4.08727 -1.48765
					CHANNELS 3 Xrotation Yrotation Zrotation
					End Site
					{
						OFFSET 0.00000 -1.89187 0.00000
					}
				}
			}
		}
	}
	JOINT LeftUpLeg
	{
		OFFSET 2.33857 0.00000 -0.68318
		CHANNELS 3 Xrotation Yrotation Zrotation
		JOINT LeftLeg
		{
			OFFSET 0.00000 0.00000 -10.74496
			CHANNELS 3 Xrotation Yrotation Zrotation
			JOINT LeftFoot
			{
				OFFSET 0.00000 0.00000 -10.93085
				CHANNELS 3 Xrotation Yrotation Zrotation
				JOINT LeftToeBase
				{
					OFFSET 0.00000 -4.08727 -1.48765
					CHANNELS 3 Xrotation Yrotation Zrotation
					End Site
					{
						OFFSET 0.00000 -1.89187 0.00000
					}
				}
			}
		}
	}
}
MOTION
Frames: 17
Frame Time: 0.008342
 0.6224 -2.1603 25.0388 -0.5205 1.1527 178.3189 0.7316 0.7993 0.4587 4.6697 -5.1367 -0.2607 1.0246 15.6034 0.7986 -2.0124 -2.9316 0.6433 -4.2406 -8.8511 -16.7712 10.1789 5.5241 -23.3917 -4.7426 -13.2135 -0.2420 -10.5032 5.5093 4.4620 -0.0000 0.0000 9.9848 6.7815 -13.5129 -4.0053 -0.0000 0.0000 -0.0000 0.0000 0.0000 0.0000 -7.2264 8.8900 4.1190 -4.1767 -9.7238 -11.2087 -0.0000 0.0000 -2.3680 5.6447 18.5460 7.3788 -0.0000 0.0000 -0.0000 -0.0000 0.0000 -0.0000 2.6387 0.4578 -7.0223 -1.3659 -0.0000 -0.0000 -2.8688 3.1963 4.2631 -1.6904 -0.0000 -0.0000 1.5240 -1.8061 -8.0410 -2.8184 0.0000 -0.0000 -2.5505 3.6698 4.6974 -1.0246 -0.0000 -0.0000
 0.6229 -2.1577 25.0388 -0.5232 1.1512 178.3178 0.7294 0.7964 0.4582 4.6664 -5.1444 -0.2609 1.0089 15.6075 0.8080 -2.0081 -2.9253 0.6428 -4.2176 -8.8471 -16.7596 10.1716 5.5234 -23.3806 -4.7390 -13.1953 -0.2477 -10.5249 5.5022 4.4654 -0.0000 0.0000 9.9684 6.7663 -13.5967 -4.0155 -0.0000 -0.0000 0.0000 0.0000 0.0000 0.0000 -7.2361 8.8619 4.1177 -4.1575 -9.7097 -11.1972 -0.0000 -0.0000 -2.3721 5.7209 18.4807 7.2370 0.0000 0.0000 0.0000 -0.0000 -0.0000 0.0000 2.6337 0.4564 -7.0277 -1.3491 0.0000 -0.0000 -2.8808 3.1973 4.2696 -1.6888 0.0000 -0.0000 1.5253 -1.8077 -8.0431 -2.8122 0.0000 -0.0000 -2.5547 3.6584 4.6986 -1.0294 -0.0000 0.0000
 0.6234 -2.1542 25.0387 -0.5251 1.1492 178.3167 0.7244 0.7908 0.4578 4.6611 -5.1470 -0.2609 0.9959 15.6036 0.8196 -2.0036 -2.9140 0.6425 -4.1894 -8.8425 -16.7459 10.1624 5.5226 -23.3649 -4.7381 -13.1676 -0.2554 -10.5486 5.4891 4.4651 -0.0000 0.0000 9.9498 6.7539 -13.7000 -4.0212 -0.0000 0.0000 0.0000 0.0000 0.0000 0.0000 -7.2444 8.8284 4.1157 -4.1341 -9.6940 -11.1838 0.0000 -0.0000 -2.3798 5.8192 18.3913 7.0655 0.0000 0.0000 0.0000 0.0000 0.0000 -0.0000 2.6292 0.4546 -7.0344 -1.3268 0.0000 0.0000 -2.8963 3.1977 4.2773 -1.6863 0.0000 -0.0000 1.5281 -1.8098 -8.0443 -2.8023 0.0000 0.0000 -2.5609 3.6520 4.6995 -1.0448 0.0000 0.0000
 0.6239 -2.1497 25.0387 -0.5264 1.1469 178.3156 0.7178 0.7833 0.4582 4.6537 -5.1465 -0.2603 0.9839 15.5939 0.8323 -1.9980 -2.8987 0.6415 -4.1562 -8.8366 -16.7276 10.1523 5.5220 -23.3464 -4.7392 -13.1322 -0.2647 -10.5720 5.4714 4.4624 0.0000 0.0000 9.9301 6.7520 -13.8193 -4.0215 -0.0000 0.0000 0.0000 -0.0000 -0.0000 0.0000 -7.2506 8.7938 4.1130 -4.1037 -9.6837 -11.1662 -0.0000 -0.0000 -2.3904 5.9293 18.2811 6.8802 0.0000 0.0000 -0.0000 0.0000 -0.0000 -0.0000 2.6251 0.4528 -7.0432 -1.2993 0.0000 0.0000 -2.9150 3.1969 4.2871 -1.6836 -0.0000 0.0000 1.5320 -1.8122 -8.0433 -2.7884 -0.0000 0.0000 -2.5690 3.6521 4.6993 -1.0717 -0.0000 0.0000
 0.6246 -2.1445 25.0387 -0.5269 1.1437 178.3134 0.7140 0.7733 0.4583 4.6416 -5.1371 -0.2609 0.9680 15.5709 0.8519 -1.9890 -2.8792 0.6381 -4.1189 -8.8258 -16.7054 10.1409 5.5199 -23.3230 -4.7367 -13.0960 -0.2756 -10.5965 5.4604 4.4620 -0.0000 0.0000 9.9081 6.7642 -13.9520 -4.0146 -0.0000 0.0000 -0.0000 0.0000 -0.0000 0.0000 -7.2578 8.7562 4.1134 -4.0637 -9.6715 -11.1470 -0.0000 0.0000 -2.4028 6.0469 18.1469 6.7036 0.0000 -0.0000 0.0000 -0.0000 0.0000 -0.0000 2.6194 0.4505 -7.0524 -1.2635 -0.0000 -0.0000 -2.9378 3.1950 4.2983 -1.6809 -0.0000 0.0000 1.5372 -1.8154 -8.0363 -2.7711 -0.0000 0.0000 -2.5787 3.6601 4.6952 -1.1098 -0.0000 0.0000
 0.6252 -2.1385 25.0388 -0.5271 1.1409 178.3118 0.7039 0.7625 0.4580 4.6296 -5.1281 -0.2597 0.9592 15.5486 0.8680 -1.9819 -2.8604 0.6369 -4.0766 -8.8103 -16.6814 10.1278 5.5161 -23.2947 -4.7369 -13.0506 -0.2875 -10.6161 5.4438 4.4569 -0.0000 0.0000 9.8883 6.7927 -14.0903 -4.0022 -0.0000 -0.0000 0.0000 -0.0000 -0.0000 0.0000 -7.2585 8.7234 4.1125 -4.0192 -9.6691 -11.1246 -0.0000 0.0000 -2.4148 6.1592 18.0001 6.5564 0.0000 -0.0000 0.0000 0.0000 -0.0000 0.0000 2.6159 0.4490 -7.0628 -1.2270 0.0000 -0.0000 -2.9616 3.1916 4.3101 -1.6785 -0.0000 0.0000 1.5428 -1.8178 -8.0293 -2.7495 0.0000 -0.0000 -2.5911 3.6754 4.6917 -1.1570 0.0000 0.0000
 0.6258 -2.1318 25.0389 -0.5260 1.1379 178.3096 0.6964 0.7503 0.4581 4.6108 -5.1083 -0.2592 0.9526 15.5100 0.8873 -1.9727 -2.8378 0.6330 -4.0320 -8.7896 -16.6539 10.1134 5.5109 -23.2627 -4.7357 -13.0042 -0.2999 -10.6318 5.4319 4.4530 -0.0000 0.0000 9.8694 6.8378 -14.2279 -3.9831 -0.0000 -0.0000 -0.0000 -0.0000 0.0000 0.0000 -7.2570 8.6939 4.1156 -3.9688 -9.6705 -11.1013 -0.0000 0.0000 -2.4263 6.2582 17.8422 6.4577 -0.0000 0.0000 -0.0000 -0.0000 -0.0000 0.0000 2.6126 0.4477 -7.0732 -1.1854 -0.0000 -0.0000 -2.9884 3.1871 4.3222 -1.6758 -0.0000 0.0000 1.5500 -1.8202 -8.0166 -2.7254 0.0000 0.0000 -2.6051 3.6986 4.6840 -1.2115 -0.0000 0.0000
 0.6263 -2.1246 25.0390 -0.5230 1.1353 178.3079 0.6875 0.7362 0.4578 4.5857 -5.0673 -0.2571 0.9582 15.4433 0.9037 -1.9646 -2.8119 0.6283 -3.9863 -8.7594 -16.6235 10.0972 5.5037 -23.2270 -4.7350 -12.9530 -0.3109 -10.6412 5.4224 4.4482 -0.0000 0.0000 9.8532 6.8976 -14.3583 -3.9593 -0.0000 -0.0000 0.0000 0.0000 0.0000 -0.0000 -7.2526 8.6749 4.1224 -3.9157 -9.6800 -11.0768 -0.0000 -0.0000 -2.4362 6.3333 17.6812 6.4176 -0.0000 0.0000 -0.0000 0.0000 -0.0000 0.0000 2.6126 0.4470 -7.0832 -1.1434 -0.0000 -0.0000 -3.0162 3.1817 4.3335 -1.6733 -0.0000 0.0000 1.5600 -1.8220 -8.0024 -2.6997 -0.0000 0.0000 -2.6210 3.7278 4.6751 -1.2706 -0.0000 0.0000
 0.6268 -2.1170 25.0391 -0.5178 1.1332 178.3068 0.6782 0.7222 0.4577 4.5613 -5.0240 -0.2537 0.9650 15.3732 0.9172 -1.9560 -2.7862 0.6242 -3.9384 -8.7257 -16.5932 10.0790 5.4959 -23.1883 -4.7360 -12.8994 -0.3223 -10.6422 5.4116 4.4406 0.0000 0.0000 9.8428 6.9679 -14.4741 -3.9338 -0.0000 -0.0000 0.0000 0.0000 0.0000 -0.0000 -7.2409 8.6641 4.1304 -3.8631 -9.6990 -11.0520 -0.0000 0.0000 -2.4435 6.3757 17.5256 6.4358 -0.0000 0.0000 -0.0000 -0.0000 -0.0000 -0.0000 2.6166 0.4471 -7.0931 -1.1028 0.0000 0.0000 -3.0444 3.1756 4.3438 -1.6710 -0.0000 0.0000 1.5728 -1.8231 -7.9872 -2.6735 -0.0000 0.0000 -2.6384 3.7612 4.6648 -1.3317 -0.0000 -0.0000
 0.6271 -2.1091 25.0392 -0.5102 1.1315 178.3062 0.6691 0.7096 0.4570 4.5368 -4.9790 -0.2504 0.9739 15.3000 0.9290 -1.9474 -2.7622 0.6206 -3.8893 -8.6887 -16.5620 10.0580 5.4871 -23.1480 -4.7367 -12.8468 -0.3326 -10.6367 5.4034 4.4321 0.0000 0.0000 9.8367 7.0447 -14.5722 -3.9066 -0.0000 -0.0000 0.0000 -0.0000 -0.0000 0.0000 -7.2248 8.6590 4.1406 -3.8128 -9.7211 -11.0265 -0.0000 0.0000 -2.4501 6.3832 17.3775 6.5007 0.0000 0.0000 0.0000 0.0000 0.0000 0.0000 2.6252 0.4479 -7.1023 -1.0645 -0.0000 0.0000 -3.0727 3.1690 4.3527 -1.6687 -0.0000 -0.0000 1.5893 -1.8234 -7.9716 -2.6481 -0.0000 -0.0000 -2.6569 3.7966 4.6536 -1.3906 -0.0000 -0.0000
 0.6274 -2.1010 25.0393 -0.4995 1.1303 178.3068 0.6613 0.6989 0.4561 4.5134 -4.9315 -0.2468 0.9834 15.2229 0.9381 -1.9385 -2.7410 0.6168 -3.8395 -8.6479 -16.5312 10.0348 5.4779 -23.1069 -4.7350 -12.7980 -0.3422 -10.6265 5.4006 4.4255 -0.0000 0.0000 9.8342 7.1164 -14.6518 -3.8810 -0.0000 0.0000 -0.0000 0.0000 0.0000 -0.0000 -7.2093 8.6550 4.1532 -3.7639 -9.7382 -10.9994 0.0000 -0.0000 -2.4579 6.3554 17.2358 6.5929 0.0000 0.0000 0.0000 -0.0000 -0.0000 0.0000 2.6394 0.4491 -7.1110 -1.0299 -0.0000 0.0000 -3.1008 3.1624 4.3597 -1.6661 -0.0000 0.0000 1.6108 -1.8232 -7.9568 -2.6254 -0.0000 -0.0000 -2.6760 3.8314 4.6416 -1.4452 -0.0000 0.0000
 0.6275 -2.0930 25.0394 -0.4897 1.1298 178.3089 0.6525 0.6906 0.4555 4.4922 -4.8941 -0.2447 0.9901 15.1588 0.9454 -1.9295 -2.7226 0.6132 -3.7892 -8.6116 -16.5009 10.0085 5.4712 -23.0665 -4.7354 -12.7532 -0.3510 -10.6103 5.3960 4.4163 -0.0000 0.0000 9.8376 7.1792 -14.7078 -3.8589 -0.0000 0.0000 -0.0000 -0.0000 0.0000 -0.0000 -7.1910 8.6518 4.1657 -3.7202 -9.7552 -10.9711 0.0000 -0.0000 -2.4680 6.2934 17.1073 6.6797 -0.0000 -0.0000 0.0000 -0.0000 -0.0000 0.0000 2.6543 0.4510 -7.1196 -0.9983 -0.0000 0.0000 -3.1288 3.1561 4.3648 -1.6630 -0.0000 -0.0000 1.6318 -1.8222 -7.9436 -2.6045 -0.0000 0.0000 -2.6953 3.8634 4.6290 -1.4939 0.0000 -0.0000
 0.6275 -2.0849 25.0394 -0.4769 1.1295 178.3124 0.6450 0.6847 0.4553 4.4741 -4.8566 -0.2422 0.9962 15.0928 0.9474 -1.9206 -2.7052 0.6124 -3.7393 -8.5766 -16.4726 9.9797 5.4664 -23.0281 -4.7339 -12.7142 -0.3607 -10.5937 5.3956 4.4101 0.0000 0.0000 9.8423 7.2221 -14.7457 -3.8378 -0.0000 0.0000 -0.0000 -0.0000 -0.0000 0.0000 -7.1763 8.6454 4.1785 -3.6808 -9.7613 -10.9423 -0.0000 -0.0000 -2.4841 6.2059 16.9848 6.7292 0.0000 -0.0000 0.0000 0.0000 -0.0000 -0.0000 2.6756 0.4529 -7.1271 -0.9722 0.0000 0.0000 -3.1558 3.1503 4.3673 -1.6598 -0.0000 0.0000 1.6584 -1.8210 -7.9339 -2.5882 -0.0000 -0.0000 -2.7146 3.8902 4.6175 -1.5349 -0.0000 -0.0000
 0.6274 -2.0770 25.0394 -0.4660 1.1304 178.3175 0.6365 0.6797 0.4543 4.4572 -4.8218 -0.2401 0.9998 15.0337 0.9513 -1.9118 -2.6897 0.6071 -3.6894 -8.5473 -16.4448 9.9473 5.4651 -22.9913 -4.7362 -12.6792 -0.3658 -10.5717 5.3936 4.3961 -0.0000 0.0000 9.8550 7.2403 -14.7648 -3.8231 -0.0000 0.0000 -0.0000 -0.0000 0.0000 -0.0000 -7.1680 8.6316 4.1900 -3.6427 -9.7545 -10.9089 -0.0000 0.0000 -2.5095 6.0985 16.8655 6.7039 -0.0000 -0.0000 -0.0000 -0.0000 -0.0000 0.0000 2.6964 0.4561 -7.1361 -0.9492 -0.0000 -0.0000 -3.1832 3.1454 4.3694 -1.6554 0.0000 -0.0000 1.6839 -1.8183 -7.9264 -2.5749 -0.0000 -0.0000 -2.7333 3.9104 4.6055 -1.5674 -0.0000 0.0000
 0.6273 -2.0690 25.0393 -0.4529 1.1311 178.3249 0.6290 0.6766 0.4541 4.4448 -4.7904 -0.2382 1.0001 14.9779 0.9500 -1.9029 -2.6740 0.6044 -3.6403 -8.5255 -16.4186 9.9125 5.4684 -22.9590 -4.7393 -12.6497 -0.3718 -10.5504 5.3912 4.3832 -0.0000 0.0000 9.8669 7.2292 -14.7716 -3.8071 0.0000 -0.0000 0.0000 0.0000 0.0000 0.0000 -7.1664 8.6076 4.1987 -3.6070 -9.7312 -10.8727 0.0000 -0.0000 -2.5470 5.9794 16.7451 6.5753 -0.0000 -0.0000 -0.0000 -0.0000 0.0000 -0.0000 2.7227 0.4586 -7.1447 -0.9320 0.0000 -0.0000 -3.2094 3.1414 4.3685 -1.6507 -0.0000 0.0000 1.7140 -1.8161 -7.9235 -2.5669 -0.0000 0.0000 -2.7511 3.9238 4.5948 -1.5932 -0.0000 0.0000
 0.6270 -2.0615 25.0392 -0.4475 1.1334 178.3337 0.6169 0.6756 0.4541 4.4350 -4.7774 -0.2380 0.9932 14.9498 0.9495 -1.8938 -2.6626 0.6022 -3.5922 -8.5163 -16.3948 9.8754 5.4779 -22.9313 -4.7427 -12.6302 -0.3791 -10.5301 5.3902 4.3681 0.0000 0.0000 9.8820 7.1839 -14.7711 -3.7916 -0.0000 0.0000 -0.0000 0.0000 0.0000 0.0000 -7.1725 8.5700 4.2038 -3.5712 -9.6918 -10.8347 -0.0000 0.0000 -2.5983 5.8536 16.6179 6.3239 0.0000 -0.0000 -0.0000 -0.0000 0.0000 -0.0000 2.7407 0.4626 -7.1532 -0.9153 -0.0000 0.0000 -3.2364 3.1388 4.3661 -1.6446 0.0000 0.0000 1.7356 -1.8122 -7.9241 -2.5603 -0.0000 0.0000 -2.7679 3.9297 4.5853 -1.6119 0.0000 -0.0000
 0.6267 -2.0534 25.0391 -0.4304 1.1355 178.3449 0.6160 0.6732 0.4536 4.4287 -4.7586 -0.2370 0.9820 14.9171 0.9477 -1.8847 -2.6481 0.5989 -3.5431 -8.5151 -16.3717 9.8374 5.4916 -22.9083 -4.7465 -12.6123 -0.3853 -10.5103 5.3858 4.3501 -0.0000 0.0000 9.8974 7.1078 -14.7699 -3.7717 -0.0000 -0.0000 0.0000 -0.0000 0.0000 0.0000 -7.1862 8.5174 4.2050 -3.5315 -9.6321 -10.7928 -0.0000 0.0000 -2.6640 5.7257 16.4769 5.9405 0.0000 -0.0000 -0.0000 -0.0000 -0.0000 0.0000 2.7772 0.4662 -7.1615 -0.9077 -0.0000 0.0000 -3.2616 3.1364 4.3609 -1.6381 -0.0000 -0.0000 1.7745 -1.8085 -7.9298 -2.5623 -0.0000 -0.0000 -2.7827 3.9288 4.5780 -1.6254 -0.0000 -0.0000
